<svg width="128" height="128" viewBox="0 0 128 128" fill="none" xmlns="http://www.w3.org/2000/svg">
<rect width="128" height="128" fill="#333333"/>
<path opacity="0.9" d="M74.7793 27.9727L92.5615 82.6533C97.8414 83.5908 102.331 84.8319 105.749 86.3809C107.772 87.2976 109.687 88.4397 111.165 89.9092C112.673 91.4086 114 93.5474 114 96.25C114 100.706 110.381 103.4 107.923 104.788C105.062 106.404 101.254 107.694 96.9814 108.715C88.3571 110.775 76.6987 112 64 112C51.3013 112 39.6429 110.775 31.0186 108.715C26.7458 107.694 22.9379 106.404 20.0771 104.788C17.6191 103.4 14 100.706 14 96.25C14 93.5474 15.3271 91.4086 16.835 89.9092C18.3129 88.4397 20.2281 87.2976 22.251 86.3809C25.5983 84.8639 29.9735 83.6414 35.1123 82.7109L45.2715 37.583L34.542 11.9521L74.7793 27.9727ZM55.7285 36.666L43.374 91.5439L39.9805 92.0449C33.7763 92.961 29.2321 94.1953 26.3789 95.4883C25.869 95.7194 25.4465 95.9384 25.0996 96.1377C26.802 97.0776 29.5493 98.0823 33.3418 98.9883C41.0042 100.819 51.846 102 64 102C76.154 102 86.9958 100.819 94.6582 98.9883C98.4501 98.0824 101.197 97.0775 102.899 96.1377C102.553 95.9385 102.131 95.7192 101.621 95.4883C98.7679 94.1953 94.2237 92.961 88.0195 92.0449L84.9541 91.5928L66.7207 35.5273L52.958 30.0479L55.7285 36.666Z" fill="white"/>
</svg>
