<svg width="512" height="512" viewBox="0 0 512 512" fill="none" xmlns="http://www.w3.org/2000/svg">
<rect width="512" height="512" fill="#FFF394"/>
<path d="M286.456 68.9767C286.577 70.2188 286.964 71.7902 287.623 73.6909C289.732 79.7744 288.507 86.0254 283.475 90.2082C280.95 92.3053 278.634 94.3794 276.525 96.4361C276.387 96.5632 276.283 96.725 276.207 96.8983C273.654 103.063 271.343 108.372 269.281 112.826C267.496 116.674 265.011 119.684 261.834 121.856C258.073 124.421 253.867 126.334 249.223 127.593C241.308 129.736 233.047 131.204 224.444 131.989C214.987 132.85 206.16 133.174 197.951 132.949C195.588 132.885 193.629 132.66 192.087 132.284C200.735 117.98 210.325 104.183 220.897 90.5837C223.329 87.4524 225.126 85.3033 226.287 84.1305C230.534 79.8437 233.757 76.2676 237.587 73.327C251.845 62.3675 270.344 61.264 286.456 68.9767Z" fill="#592B29"/>
<path d="M286.456 68.9767C297.704 74.3553 306.56 82.3049 313.014 92.8368C314.435 95.1535 316.376 99.0243 315.775 101.78C315.636 102.427 315.082 102.907 314.423 102.953C313.302 103.034 312.297 102.791 311.413 102.225C303.244 97.0427 294.931 92.0165 284.729 93.1546C280.841 93.5879 278.761 95.7659 278.495 99.6771C278.068 105.894 278.952 111.931 280.205 118.563C281.805 127.021 283.296 135.496 284.677 143.995C284.636 144.203 284.55 144.347 284.428 144.434C277.825 149.131 271.996 153.897 266.941 158.738C266.733 158.941 266.606 159.154 266.56 159.391C266.542 159.495 266.6 159.599 266.704 159.634L278.507 163.632C284.29 165.81 289.969 168.409 295.543 171.425L300.321 174.308C299.385 174.568 298.576 174.574 297.901 174.325C288.374 170.813 279.061 167.768 269.951 165.192C263.348 163.325 257.143 161.916 251.325 160.968C241.21 159.31 235.011 158.374 232.735 158.155C223.936 157.294 218.303 156.82 215.837 156.728C211.914 156.583 208.003 156.427 204.092 156.26C202.451 156.185 198.534 156.196 192.341 156.289C186.731 156.375 181.076 156.237 175.362 155.873C176.003 155.509 176.552 155.318 177.008 155.295L190.001 153.469C190.244 153.435 190.354 153.146 190.192 152.955C188.441 150.87 186.564 149.027 184.559 147.426C184.38 147.282 184.259 146.97 184.201 146.502C184.438 145.791 184.733 145.11 185.085 144.451C187.298 140.32 189.632 136.265 192.087 132.284C193.629 132.66 195.588 132.885 197.951 132.949C206.16 133.174 214.987 132.85 224.444 131.989C233.047 131.204 241.308 129.736 249.223 127.593C253.867 126.334 258.073 124.421 261.834 121.856C265.011 119.684 267.496 116.674 269.281 112.826C271.343 108.372 273.654 103.063 276.207 96.8983C276.283 96.725 276.387 96.5632 276.525 96.4361C278.634 94.3794 280.95 92.3053 283.475 90.2082C288.507 86.0254 289.732 79.7744 287.623 73.6909C286.964 71.7902 286.577 70.2188 286.456 68.9767Z" fill="#431E1B"/>
<path d="M184.201 146.502C184.259 146.97 184.38 147.282 184.559 147.426C186.564 149.027 188.441 150.87 190.192 152.955C190.354 153.146 190.244 153.435 190.001 153.469L177.008 155.295C173.929 151.28 170.394 147.733 166.413 144.648C166.136 144.434 165.836 144.255 165.518 144.11L162.779 142.891C162.364 142.706 161.884 142.914 161.74 143.342C161.191 144.948 161.237 146.641 161.098 148.582C160.867 151.858 161.185 155.012 162.057 158.033L154.31 159.726C154.397 156.231 154.547 152.782 154.761 149.379C155.102 143.995 154.934 135.161 161.26 132.943C162.473 132.515 165.09 133.064 166.529 133.705C173.121 136.629 178.048 141.285 183.462 146.358C183.6 146.485 183.779 146.542 183.958 146.525L184.201 146.502Z" fill="#EB8376"/>
<path d="M301.581 175.227C301.09 175.071 300.674 174.764 300.321 174.308L295.543 171.425C296.866 163.481 297.502 155.549 297.438 147.629C297.433 146.843 297.357 145.988 297.213 145.058C297.173 144.78 296.884 144.619 296.624 144.728C296.035 144.977 295.595 145.237 295.312 145.508C293.423 147.294 291.603 148.507 289.749 150.361C285.347 154.775 282.389 158.12 280.881 160.396C279.859 161.95 279.067 163.025 278.507 163.632L266.704 159.634C266.6 159.599 266.542 159.495 266.56 159.391C266.606 159.154 266.733 158.941 266.941 158.738C271.996 153.897 277.825 149.131 284.428 144.434C284.55 144.347 284.636 144.203 284.677 143.995C284.682 144.185 284.815 144.266 285.064 144.249C285.162 144.243 285.254 144.203 285.324 144.133C288.854 140.661 292.562 137.703 296.45 135.271C299.125 133.596 304.787 131.978 304.954 137.091C305.041 139.627 305.07 141.626 304.879 143.642C303.863 154.151 302.765 164.677 301.581 175.227Z" fill="#EB8376"/>
<path d="M177.008 155.295C176.552 155.318 176.003 155.509 175.362 155.873L162.057 158.033C161.185 155.012 160.867 151.858 161.098 148.582C161.237 146.641 161.191 144.948 161.74 143.342C161.884 142.914 162.364 142.706 162.779 142.891L165.518 144.11C165.836 144.255 166.136 144.434 166.413 144.648C170.394 147.733 173.929 151.28 177.008 155.295Z" fill="#DA6B5F"/>
<path d="M295.543 171.425C289.969 168.409 284.29 165.81 278.507 163.632C279.067 163.025 279.859 161.95 280.881 160.396C282.389 158.12 285.347 154.775 289.749 150.361C291.603 148.507 293.423 147.294 295.312 145.508C295.595 145.237 296.035 144.977 296.624 144.728C296.884 144.619 297.173 144.78 297.213 145.058C297.357 145.988 297.433 146.843 297.438 147.629C297.502 155.549 296.866 163.481 295.543 171.425Z" fill="#DA6B5F"/>
<path d="M175.362 155.873C181.076 156.237 186.731 156.375 192.341 156.289C198.534 156.196 202.451 156.185 204.092 156.26C208.003 156.427 211.914 156.583 215.837 156.728C218.303 156.82 223.936 157.294 232.735 158.155C235.011 158.374 241.21 159.31 251.325 160.968C257.143 161.916 263.348 163.325 269.951 165.192C279.061 167.768 288.374 170.813 297.901 174.325C298.576 174.574 299.385 174.568 300.321 174.308C300.674 174.764 301.09 175.071 301.581 175.227C309.293 179.75 316.798 184.534 324.094 189.572C329.519 193.31 334.834 197.29 340.039 201.513C346.74 206.944 356.989 216.02 356.486 225.587C356.296 229.135 353.604 232.508 350.767 234.473C346.515 237.419 341.558 238.985 336.607 240.123C326.266 242.503 315.336 243.185 304.486 244.057L304.602 242.896L304.729 233.144C304.625 224.721 303.233 216.632 300.552 208.885C299.31 205.286 297.808 202.253 296.052 199.797C294.047 196.99 291.817 194.453 289.362 192.189C286.017 189.098 283.775 187.197 282.626 186.475C275.595 182.044 268.94 178.722 262.66 176.509C251.649 172.621 238.899 169.779 226.813 169.449C217.24 169.189 207.824 169.929 198.569 171.656C195.674 172.199 191.677 173.234 189.152 174.256C184.051 176.313 179.256 178.589 174.773 181.091C171.399 182.974 167.962 185.62 164.466 189.023C162.156 191.27 159.96 194.546 158.753 197.29C157.886 199.26 156.113 203.888 153.438 211.161C151.231 217.326 150.081 223.692 149.995 230.261C149.954 233.271 149.92 236.281 149.902 239.291C132.34 239.539 111.808 236.437 98.6303 223.588C94.3148 219.377 92.4834 214.374 93.1247 208.573C93.8988 201.612 98.6187 193.726 102.836 188.728C112.056 177.803 124.015 170.027 137.505 164.932C143.033 162.84 148.631 161.107 154.31 159.726L162.057 158.033L175.362 155.873Z" fill="#1A1812"/>
<path d="M304.729 233.144L296.358 210.722C295.699 209.209 294.966 207.782 294.163 206.441C293.389 205.159 292.903 204.373 292.707 204.078C290.916 201.398 289.801 199.815 289.368 199.33C288.478 198.347 286.78 196.545 284.278 193.928C282.649 192.229 280.015 189.953 276.369 187.105C274.931 185.978 273.105 184.967 270.892 184.066C264.798 181.587 260.159 179.843 256.975 178.843C255.797 178.479 254.023 178.196 251.66 178C247.801 177.803 243.659 177.844 239.234 178.127C225.594 178.999 212.983 180.444 201.4 182.471C193.121 183.921 185.553 185.788 178.695 188.064C177.28 188.532 175.917 189.138 174.605 189.884C170.261 192.351 166.211 195.28 162.456 198.682C159.383 201.461 157.436 203.807 156.609 205.719C156.523 205.916 156.396 206.1 156.24 206.251C155.587 206.892 155.229 207.475 155.154 208.007C155.131 208.175 155.032 208.325 154.894 208.423C154.403 208.741 154.541 209.284 154.287 209.792C154.05 210.283 153.767 210.74 153.438 211.161C156.113 203.888 157.886 199.26 158.753 197.29C159.96 194.546 162.156 191.27 164.466 189.023C167.962 185.62 171.399 182.974 174.773 181.091C179.256 178.589 184.051 176.313 189.152 174.256C191.677 173.234 195.674 172.199 198.569 171.656C207.824 169.929 217.24 169.189 226.813 169.449C238.899 169.779 251.649 172.621 262.66 176.509C268.94 178.722 275.595 182.044 282.626 186.475C283.775 187.197 286.017 189.098 289.362 192.189C291.817 194.453 294.047 196.99 296.052 199.797C297.808 202.253 299.31 205.286 300.552 208.885C303.233 216.632 304.625 224.721 304.729 233.144Z" fill="#AA433A"/>
<path d="M251.66 178C253.654 178.855 255.681 180.38 257.732 182.575C260.846 185.915 265.445 186.735 270.28 187.18C270.459 187.197 270.633 187.243 270.788 187.33C272.666 188.306 274.226 189.716 275.468 191.571C276.161 192.599 277.467 193.806 278.414 194.488C282.499 197.429 284.833 199.104 285.41 199.52C289.657 202.576 293.302 206.308 296.358 210.722L304.729 233.144L304.602 242.896C303.672 241.804 302.765 240.747 301.869 239.73C300.679 238.372 299.657 237.477 298.796 237.044C295.139 235.195 290.76 236.437 287.172 238.32C286.837 238.494 286.768 238.944 287.028 239.216C288.449 240.678 291.927 241.238 294.163 241.648C294.931 241.787 296.716 242.388 297.202 242.642C297.548 242.827 297.756 243.196 297.727 243.583C297.583 245.634 296.82 247.714 295.428 249.823C294.856 250.695 294.498 251.186 294.359 251.296C293.337 252.122 291.881 251.724 290.806 252.036C290.627 252.082 290.471 252.197 290.373 252.348C288.536 255.127 286.312 258.038 283.7 261.089C282.221 262.816 279.558 265.295 275.716 268.512C273.937 270.003 270.517 273.163 265.456 277.993C263.74 279.634 263.596 281.269 265.017 282.898C265.144 283.042 265.306 283.152 265.485 283.216C266.589 283.603 267.478 283.793 268.154 283.788C272.77 283.747 277.138 282.794 281.251 280.939C285.324 279.096 288.438 277.381 290.598 275.803C292.984 274.053 294.735 272.533 295.844 271.245C297.987 268.744 300.015 265.93 302.245 265.185C302.43 265.121 302.551 264.948 302.545 264.751L302.505 263.769L304.637 266.889C303.308 268.876 303.527 271.245 301.962 273.048C298.386 277.178 294.596 280.09 289.789 283.129C282.903 287.485 275.67 288.901 267.519 290.166C266.461 290.333 265.254 290.807 263.908 291.598C260.551 293.557 261.014 298.046 265.208 298.462C267.022 298.641 268.807 298.525 270.563 298.115C275.895 296.862 281.852 295.25 288.426 293.291C290.431 292.696 292.389 292.038 294.307 291.31C298.126 289.86 300.061 289.126 300.113 289.103C303.961 287.341 308.49 285.203 310.281 281.621C310.356 281.471 310.391 281.303 310.385 281.136L310.229 277.427C313.002 283.955 315.654 290.27 318.767 296.89C320.218 299.976 321.65 303.061 323.054 306.151C321.315 307.752 320.137 309.127 319.53 310.276C318.219 312.749 317.086 314.916 315.527 317.088C311.517 322.651 308.814 326.493 307.41 328.614C306.422 330.116 305.827 331.71 305.63 333.391C305.596 333.663 305.775 333.923 306.041 333.986C307.808 334.431 309.518 334.281 311.176 333.536C314.966 331.832 318.375 329.561 321.402 326.719C322.436 325.754 324.134 323.813 326.497 320.907C326.769 320.572 326.919 320.15 326.919 319.717L326.913 318.492L330.154 332.138C327.092 332.767 326.434 335.795 324.955 338.447C323.199 341.595 319.172 344.692 318.571 348.204C318.149 350.665 317.531 352.965 316.705 355.097C316.636 355.276 316.815 355.449 316.994 355.38C319.368 354.45 321.379 353.768 323.014 353.335C327.358 352.185 329.871 350.585 332.136 347.384C332.251 347.222 332.309 347.026 332.292 346.829L331.905 341.26L334.296 355.715L333.372 353.774C333.147 353.3 332.459 353.323 332.269 353.814C331.997 354.507 331.639 355.102 331.206 355.605C330.72 356.165 330.351 356.732 330.102 357.309C328.808 360.302 327.994 362.728 327.653 364.589C326.168 372.677 324.302 380.153 320.564 387.496C318.282 390.586 316.688 392.574 315.787 393.458C312.332 396.814 308.484 400.442 308.473 404.787C305.971 406.757 303.493 409.137 301.049 410.807C292.199 416.856 282.002 421.541 271.395 423.448C271.747 421.166 272.296 418.941 273.047 416.769C274.133 413.632 274.717 411.922 274.804 411.639C276.774 405.116 278.322 398.345 279.454 391.326C280.298 386.103 280.494 381.557 281.153 376.727C281.43 374.699 281.719 368.881 280.286 367.246C277.467 364.023 274.457 367.102 272.943 369.673C270.875 373.191 268.888 377.235 266.981 381.799C263.688 389.691 260.523 396.537 257.553 403.897C254.832 410.663 252.978 414.152 249.246 421.813C248.009 424.343 240.574 434.217 236.946 428.965C235.427 426.764 234.56 425.366 234.346 424.765C232.561 419.779 230.302 414.995 227.57 410.408L223.162 397.005C223.093 396.809 222.965 396.641 222.792 396.531L221.92 395.971C221.764 395.867 221.648 395.711 221.596 395.532L217.83 382.458C217.09 380.378 214.889 375.334 212.792 374.468C212.203 374.225 211.504 374.589 211.273 375.265C210.377 377.882 210.238 380.644 210.845 383.55C211.556 386.935 212.942 392.094 215.01 399.033C215.386 400.292 215.403 401.396 215.051 402.337C213.121 407.543 211.931 412.477 211.486 417.145C211.238 419.75 210.614 423.211 209.62 425.239C208.523 427.463 207.656 428.809 207.026 429.288C204.698 431.039 202.445 431.022 200.273 429.236C193.127 423.361 187.251 416.515 182.659 408.687C182.653 408.675 181.965 407.381 180.608 404.799C179.62 402.921 178.459 401.136 177.124 399.455C176.2 396.722 175.16 393.96 174.01 391.17C172.947 388.599 172.3 386.97 172.069 386.282C171.451 384.451 170.804 382.822 170.122 381.406C169.62 380.361 168.302 377.299 166.171 372.232C165.726 371.163 164.085 369.182 161.254 366.287C160.913 365.923 160.532 365.738 160.105 365.733C159.914 365.727 159.729 365.808 159.596 365.946C155.379 370.378 159.515 378.327 161.74 382.741L161.792 383.342C164.102 391.563 166.569 399.709 169.186 407.78C170.243 411.038 171.416 414.227 172.699 417.347C172.612 417.549 172.629 417.809 172.757 418.138L168.857 425.516C168.718 425.776 168.522 426.007 168.291 426.186C162.606 430.513 156.205 433.148 149.088 434.095C147.297 434.332 145.437 434.598 143.501 434.892C141.138 432.16 139.238 429.196 137.799 425.99C136.707 423.557 135.743 420.68 134.905 417.358C131.167 402.545 129.809 387.507 130.82 372.249L130.982 377.085C130.988 377.287 131.098 377.472 131.271 377.576C132.525 378.344 134.362 379.223 136.771 380.21C139.238 381.227 141.237 380.73 142.773 378.726C142.929 378.518 143.235 378.495 143.426 378.674C144.807 379.962 146.251 381.181 147.753 382.331C151.878 385.485 154.622 387.594 159.718 387.299C159.77 387.293 159.781 387.224 159.735 387.207C157.303 386.265 154.94 385.086 152.641 383.683C149.775 381.926 148.574 379.656 147.019 376.317C146.933 376.137 146.829 375.976 146.696 375.831C146.107 375.161 145.494 374.445 144.691 373.803C140.798 370.689 137.106 366.813 133.611 362.168C133.189 361.608 132.634 361.498 131.947 361.85C132.421 357.696 132.802 354.75 133.097 353.017C136.303 334.16 139.746 315.389 141.941 296.376L142.063 297.15C142.097 297.358 142.259 297.526 142.473 297.566C142.889 297.647 143.709 298.115 143.94 298.3C149.908 303.072 156.581 306.515 163.97 308.624C166.488 309.341 174.634 312.062 176.067 309.213C176.523 308.301 176.523 307.359 176.067 306.388C175.281 304.724 173.993 303.968 172.098 303.17C165.593 300.444 159.897 296.463 155.009 291.229C151.295 287.254 147.967 282.771 145.021 277.773L146.846 269.5C148.054 270.639 148.77 271.517 149.007 272.123C150.751 276.63 154.01 279.668 158.787 281.24C162.392 282.424 165.42 282.834 167.875 282.465C168.025 282.442 168.164 282.378 168.279 282.286C168.949 281.719 169.134 281.142 168.84 280.547C167.817 278.496 166.084 277.15 163.646 276.497C162.797 276.271 159.798 275.555 154.663 274.359C154.408 274.301 154.27 274.024 154.38 273.787L155.055 272.268C155.188 271.967 155.131 271.621 154.905 271.378L148.233 264.249C149.099 260.678 150.081 256.964 151.179 253.11C151.427 252.226 151.543 251.175 151.526 249.956C151.52 249.742 151.497 249.528 151.445 249.32C150.613 246.05 150.099 242.705 149.902 239.291C149.92 236.281 149.954 233.271 149.995 230.261C150.081 223.692 151.231 217.326 153.438 211.161C153.767 210.74 154.05 210.283 154.287 209.792C154.541 209.284 154.403 208.741 154.894 208.423C155.032 208.325 155.131 208.175 155.154 208.007C155.229 207.475 155.587 206.892 156.24 206.251C156.396 206.1 156.523 205.916 156.609 205.719C157.436 203.807 159.383 201.461 162.456 198.682C166.211 195.28 170.261 192.351 174.605 189.884C175.917 189.138 177.28 188.532 178.695 188.064C185.553 185.788 193.121 183.921 201.4 182.471C212.983 180.444 225.594 178.999 239.234 178.127C243.659 177.844 247.801 177.803 251.66 178ZM250.517 195.944C248.477 198.838 247.79 201.848 248.454 204.974C249.656 210.618 253.22 213.992 259.142 215.101C258.235 216.286 257.547 217.037 257.091 217.349C254.428 219.163 252.007 220.578 251.788 223.796C251.776 223.952 251.909 224.085 252.065 224.074L253.417 223.993C253.457 223.987 253.503 223.981 253.544 223.975C258.853 222.676 264.353 221.89 270.037 221.607C271.828 221.52 273.816 221.607 276.005 221.867C277.813 222.086 279.83 222.115 282.042 221.959C282.204 221.948 282.349 221.844 282.412 221.693C282.66 221.098 282.984 220.064 283.383 218.591C284.191 215.575 286.046 213.83 288.351 211.41C288.472 211.283 288.455 211.081 288.316 210.971C285.249 208.556 281.678 207.395 277.12 205.505C275.786 204.951 274.33 204.055 272.741 202.813C272.389 194.737 264.803 189.826 257.143 191.524C254.514 191.311 252.365 190.958 250.707 190.479C248.414 189.814 246.935 189.427 246.27 189.312C246.086 189.277 245.895 189.317 245.739 189.427C244.994 189.953 244.791 190.606 245.132 191.386C246.166 193.708 247.963 195.228 250.517 195.944ZM198.822 202.271C198.523 195.632 192.705 190.502 185.839 190.814C178.973 191.126 173.646 196.764 173.948 203.401C174.247 210.04 180.065 215.17 186.931 214.858C193.797 214.547 199.123 208.908 198.822 202.271ZM222.538 228.511C222.723 228.355 223.006 228.389 223.145 228.591C226.726 233.733 232.301 233.883 237.512 230.746C238.367 230.226 238.541 229.412 238.414 228.505C238.379 228.262 238.125 228.129 237.905 228.233C236.392 228.973 235.022 229.556 233.803 229.99C230.441 231.18 226.085 230.094 224.82 226.489C224.797 226.413 224.785 226.338 224.779 226.263L224.751 222.976C224.745 222.589 224.97 222.236 225.328 222.08C227.05 221.324 234.543 216.944 229.147 215.356C225.311 214.223 218.563 213.374 215.207 215.431C214.583 215.818 214.265 216.511 214.421 217.152C214.958 219.354 218.344 221.659 220.296 222.375C220.574 222.479 220.77 222.727 220.793 223.022C221.365 229.094 215.241 231.821 210.348 229.002C209.459 228.487 208.771 227.598 208.084 226.916C207.841 226.679 207.437 226.789 207.35 227.112C206.974 228.528 207.373 229.683 208.557 230.585C212.526 233.612 217.073 232.809 221.007 229.776C221.336 229.527 221.845 229.106 222.538 228.511ZM178.066 230.954L163.733 234.149C163.652 234.172 163.6 234.242 163.6 234.323V234.484C163.6 234.658 163.762 234.785 163.929 234.738C175.951 231.578 188.193 230.053 200.648 230.174C200.764 230.18 200.862 230.082 200.862 229.966V229.77C200.862 229.695 200.799 229.637 200.724 229.637L196.893 229.545L197.211 229.094C197.39 228.846 197.269 228.499 196.974 228.418C195.258 227.939 193.745 227.13 192.433 225.98C192.249 225.818 192.035 225.703 191.804 225.633C187.471 224.38 182.866 223.479 177.991 222.93C177.026 222.82 176.055 222.837 175.067 222.976C174.888 222.999 174.75 223.143 174.732 223.328C174.426 226.373 175.541 228.915 178.066 230.954ZM257.992 229.81L249.702 229.88C249.627 229.886 249.558 229.932 249.534 230.007C249.494 230.14 249.534 230.255 249.644 230.359C249.754 230.458 249.898 230.51 250.083 230.51C251.845 230.481 253.619 230.481 255.404 230.504C255.052 230.665 254.728 230.752 254.433 230.758C254.266 230.764 254.127 230.891 254.116 231.058C254.098 231.226 254.214 231.376 254.376 231.411L262.071 233.04C262.238 233.075 262.4 233.121 262.562 233.179C267.16 234.796 271.436 234.571 275.381 232.503C277.975 232.763 280.644 233.45 283.4 234.577C283.804 234.744 284.215 234.993 284.636 235.334C284.734 235.409 284.873 235.386 284.942 235.287L285 235.212C285.07 235.114 285.046 234.975 284.954 234.9C284.07 234.213 283.1 233.699 282.054 233.369C279.321 232.497 276.56 231.775 273.775 231.203C277.039 229.522 280.454 228.99 284.007 229.614C284.209 229.649 284.411 229.527 284.475 229.325C284.532 229.129 284.434 228.915 284.243 228.834C282.608 228.129 281.303 227.066 280.315 225.651C278.64 223.247 275.612 223.132 272.972 223.23C268.183 223.421 263.428 224.362 258.709 226.055C258.529 226.119 258.339 226.159 258.154 226.171C257.235 226.223 256.351 226.431 255.514 226.795C255.346 226.87 255.254 227.055 255.306 227.228C255.612 228.297 256.507 229.158 257.992 229.81ZM189.435 232.838C186.529 233.467 183.641 234.271 180.769 235.247C180.365 235.386 180.001 235.576 179.683 235.825C179.602 235.888 179.579 235.998 179.631 236.085C179.678 236.171 179.782 236.212 179.88 236.177C183.358 234.952 186.581 234.022 189.551 233.381C192.514 232.74 195.836 232.254 199.51 231.925C199.614 231.913 199.689 231.838 199.701 231.734C199.707 231.636 199.643 231.544 199.545 231.521C199.152 231.428 198.742 231.405 198.315 231.445C195.299 231.746 192.335 232.208 189.435 232.838ZM259.327 233.589C259.598 233.935 259.881 234.167 260.17 234.276C262.469 235.154 264.058 235.351 265.034 237.402C265.086 237.506 265.086 237.633 265.04 237.737L264.538 238.869C264.463 239.043 264.538 239.245 264.705 239.326C268.455 241.157 272.135 243.064 275.734 245.057C275.786 245.086 276.288 245.322 277.253 245.773C277.975 246.114 278.703 246.617 279.437 247.293C279.535 247.379 279.645 247.454 279.766 247.518C282.21 248.772 284.671 249.234 287.155 248.916C289.189 248.65 290.772 246.888 288.836 245.184C287.831 244.3 286.826 243.358 285.826 242.359C284.942 241.486 283.845 241.076 282.528 241.128C280.5 241.215 278.767 241.041 277.317 240.597C275.451 240.03 272.943 238.598 269.801 236.298C269.668 236.2 269.529 236.131 269.379 236.085C267.42 235.484 265.254 234.773 262.874 233.947C262.521 233.826 261.383 233.635 259.448 233.375C259.332 233.358 259.252 233.496 259.327 233.589ZM171.769 246.622C171.792 246.686 171.867 246.709 171.925 246.674C180.382 241.353 189.21 237.465 198.401 234.998C198.488 234.975 198.546 234.894 198.534 234.808C198.528 234.721 198.459 234.652 198.372 234.646C197.673 234.594 196.824 234.646 196.056 234.866C187.523 237.327 179.406 241.163 171.705 246.38C171.694 246.385 171.688 246.403 171.694 246.414L171.769 246.622ZM145.275 412.188C145.003 414.135 150.174 415.348 152.034 415.793C153.802 416.226 158.551 416.509 158.886 414.094C159.227 411.674 154.587 410.651 152.762 410.576C150.855 410.495 145.552 410.247 145.275 412.188Z" fill="#EB8376"/>
<path d="M296.358 210.722C293.302 206.308 289.657 202.576 285.41 199.52C284.833 199.104 282.499 197.429 278.414 194.488C277.467 193.806 276.161 192.599 275.468 191.571C274.226 189.716 272.666 188.306 270.788 187.33C270.633 187.243 270.459 187.197 270.28 187.18C265.445 186.735 260.846 185.915 257.732 182.575C255.681 180.38 253.654 178.855 251.66 178C254.023 178.196 255.797 178.479 256.975 178.843C260.159 179.843 264.798 181.587 270.892 184.066C273.105 184.967 274.931 185.978 276.369 187.105C280.015 189.953 282.649 192.229 284.278 193.928C286.78 196.545 288.478 198.347 289.368 199.33C289.801 199.815 290.916 201.398 292.707 204.078C292.903 204.373 293.389 205.159 294.163 206.441C294.966 207.782 295.699 209.209 296.358 210.722Z" fill="#DA6B5F"/>
<path d="M257.143 191.524C254.41 192.316 252.198 193.789 250.517 195.944C247.963 195.228 246.166 193.708 245.132 191.386C244.791 190.606 244.994 189.953 245.739 189.427C245.895 189.317 246.086 189.277 246.27 189.312C246.935 189.427 248.414 189.814 250.707 190.479C252.365 190.958 254.514 191.311 257.143 191.524Z" fill="#DA6B5F"/>
<path d="M198.823 202.27C199.125 208.907 193.798 214.546 186.932 214.857C180.066 215.169 174.248 210.039 173.949 203.4C173.647 196.763 178.974 191.124 185.84 190.813C192.706 190.5 198.524 195.631 198.823 202.27ZM183.624 196.561C183.624 195.22 182.538 194.134 181.198 194.134C179.858 194.134 178.772 195.22 178.772 196.561C178.772 197.901 179.858 198.987 181.198 198.987C182.538 198.987 183.624 197.901 183.624 196.561Z" fill="#1A1812"/>
<path d="M272.741 202.813C273.036 210.566 266.658 215.789 259.142 215.101C253.22 213.992 249.656 210.618 248.454 204.974C247.79 201.848 248.477 198.838 250.517 195.944C252.198 193.789 254.41 192.316 257.143 191.524C264.803 189.826 272.389 194.737 272.741 202.813ZM257.634 194.7C256.796 193.598 255.179 193.425 254.019 194.304C252.856 195.187 252.591 196.793 253.428 197.893C254.266 198.994 255.883 199.168 257.043 198.289C258.206 197.406 258.472 195.8 257.634 194.7Z" fill="#1A1812"/>
<path d="M257.043 198.289C258.205 197.407 258.469 195.801 257.634 194.7C256.799 193.6 255.18 193.422 254.019 194.304C252.857 195.185 252.593 196.792 253.428 197.893C254.263 198.993 255.882 199.171 257.043 198.289Z" fill="white"/>
<path d="M181.197 198.989C182.537 198.989 183.623 197.902 183.623 196.562C183.623 195.222 182.537 194.136 181.197 194.136C179.857 194.136 178.771 195.222 178.771 196.562C178.771 197.902 179.857 198.989 181.197 198.989Z" fill="white"/>
<path d="M259.142 215.101C266.658 215.789 273.036 210.566 272.741 202.813C274.33 204.055 275.786 204.951 277.12 205.505C281.678 207.395 285.249 208.556 288.316 210.971C288.455 211.081 288.472 211.283 288.351 211.41C286.046 213.83 284.191 215.575 283.383 218.591C282.984 220.064 282.66 221.098 282.412 221.693C282.349 221.844 282.204 221.948 282.042 221.959C279.83 222.115 277.813 222.086 276.005 221.867C273.816 221.607 271.828 221.52 270.037 221.607C264.353 221.89 258.853 222.676 253.544 223.975C253.503 223.981 253.457 223.987 253.417 223.993L252.065 224.074C251.909 224.085 251.776 223.952 251.788 223.796C252.007 220.578 254.428 219.163 257.091 217.349C257.547 217.037 258.235 216.286 259.142 215.101Z" fill="#DA6B5F"/>
<path d="M222.538 228.511C221.845 229.106 221.336 229.527 221.007 229.776C217.073 232.809 212.526 233.612 208.557 230.585C207.373 229.683 206.974 228.528 207.35 227.112C207.437 226.789 207.841 226.679 208.084 226.916C208.771 227.598 209.459 228.487 210.348 229.002C215.241 231.821 221.365 229.094 220.793 223.022C220.77 222.727 220.574 222.479 220.296 222.375C218.344 221.659 214.958 219.354 214.421 217.152C214.265 216.511 214.583 215.818 215.207 215.431C218.563 213.374 225.311 214.223 229.147 215.356C234.543 216.944 227.05 221.324 225.328 222.08C224.97 222.236 224.745 222.589 224.751 222.976L224.779 226.263C224.785 226.338 224.797 226.413 224.82 226.489C226.085 230.094 230.441 231.18 233.803 229.99C235.022 229.556 236.392 228.973 237.905 228.233C238.125 228.129 238.379 228.262 238.414 228.505C238.541 229.412 238.367 230.226 237.512 230.746C232.301 233.883 226.726 233.733 223.145 228.591C223.006 228.389 222.723 228.355 222.538 228.511Z" fill="#1A1812"/>
<path d="M196.893 229.545C190.51 229.55 184.236 230.018 178.066 230.954C175.541 228.915 174.426 226.373 174.732 223.328C174.75 223.143 174.888 222.999 175.067 222.976C176.055 222.837 177.026 222.82 177.991 222.93C182.866 223.479 187.471 224.38 191.804 225.633C192.035 225.703 192.249 225.818 192.433 225.98C193.745 227.13 195.258 227.939 196.974 228.418C197.269 228.499 197.39 228.846 197.211 229.094L196.893 229.545Z" fill="#DA6B5F"/>
<path d="M273.775 231.203C268.472 230.146 263.209 229.683 257.992 229.81C256.507 229.158 255.612 228.297 255.306 227.228C255.254 227.055 255.346 226.87 255.514 226.795C256.351 226.431 257.235 226.223 258.154 226.171C258.339 226.159 258.529 226.119 258.709 226.055C263.428 224.362 268.183 223.421 272.972 223.23C275.612 223.132 278.64 223.247 280.315 225.651C281.303 227.066 282.608 228.129 284.243 228.834C284.434 228.915 284.532 229.129 284.475 229.325C284.411 229.527 284.209 229.649 284.007 229.614C280.454 228.99 277.039 229.522 273.775 231.203Z" fill="#DA6B5F"/>
<path d="M196.893 229.545L200.724 229.637C200.799 229.637 200.862 229.695 200.862 229.77V229.966C200.862 230.082 200.764 230.18 200.648 230.174C188.193 230.053 175.951 231.578 163.929 234.738C163.762 234.785 163.6 234.658 163.6 234.484V234.323C163.6 234.242 163.652 234.172 163.733 234.149L178.066 230.954C184.236 230.018 190.51 229.55 196.893 229.545Z" fill="white"/>
<path d="M257.992 229.81C263.209 229.683 268.472 230.146 273.775 231.203C276.56 231.775 279.321 232.497 282.054 233.369C283.1 233.699 284.07 234.213 284.954 234.9C285.046 234.975 285.07 235.114 285 235.212L284.942 235.287C284.873 235.386 284.734 235.409 284.636 235.334C284.215 234.993 283.804 234.744 283.4 234.577C280.644 233.45 277.975 232.763 275.381 232.503C272.273 231.884 269.31 231.399 266.49 231.047C262.787 230.59 259.096 230.406 255.404 230.504C253.619 230.481 251.845 230.481 250.083 230.51C249.898 230.51 249.754 230.458 249.644 230.359C249.534 230.255 249.494 230.14 249.534 230.007C249.558 229.932 249.627 229.886 249.702 229.88L257.992 229.81Z" fill="white"/>
<path d="M275.381 232.503C271.436 234.571 267.16 234.796 262.562 233.179C262.4 233.121 262.238 233.075 262.071 233.04L254.376 231.411C254.214 231.376 254.098 231.226 254.116 231.058C254.127 230.891 254.266 230.764 254.433 230.758C254.728 230.752 255.052 230.665 255.404 230.504C259.096 230.406 262.787 230.59 266.49 231.047C269.31 231.399 272.273 231.884 275.381 232.503Z" fill="#DA6B5F"/>
<path d="M189.551 233.381C186.581 234.022 183.358 234.952 179.88 236.177C179.782 236.212 179.678 236.171 179.631 236.085C179.579 235.998 179.602 235.888 179.683 235.825C180.001 235.576 180.365 235.386 180.769 235.247C183.641 234.271 186.529 233.467 189.435 232.838C192.335 232.208 195.299 231.746 198.315 231.445C198.742 231.405 199.152 231.428 199.545 231.521C199.643 231.544 199.707 231.636 199.701 231.734C199.689 231.838 199.614 231.913 199.51 231.925C195.836 232.254 192.514 232.74 189.551 233.381Z" fill="white"/>
<path d="M259.448 233.375C261.383 233.635 262.521 233.826 262.874 233.947C265.254 234.773 267.42 235.484 269.379 236.085C269.529 236.131 269.668 236.2 269.801 236.298C272.943 238.598 275.451 240.03 277.317 240.597C278.767 241.041 280.5 241.215 282.528 241.128C283.845 241.076 284.942 241.486 285.826 242.359C286.826 243.358 287.831 244.3 288.836 245.184C290.772 246.888 289.189 248.65 287.155 248.916C284.671 249.234 282.21 248.772 279.766 247.518C279.645 247.454 279.535 247.379 279.437 247.293C278.703 246.617 277.975 246.114 277.253 245.773C276.288 245.322 275.786 245.086 275.734 245.057C272.135 243.064 268.455 241.157 264.705 239.326C264.538 239.245 264.463 239.043 264.538 238.869L265.04 237.737C265.086 237.633 265.086 237.506 265.034 237.402C264.058 235.351 262.469 235.154 260.17 234.276C259.881 234.167 259.598 233.935 259.327 233.589C259.252 233.496 259.332 233.358 259.448 233.375Z" fill="#DA6B5F"/>
<path d="M171.769 246.622L171.694 246.414C171.688 246.403 171.694 246.385 171.705 246.38C179.406 241.163 187.523 237.327 196.056 234.866C196.824 234.646 197.673 234.594 198.372 234.646C198.459 234.652 198.528 234.721 198.534 234.808C198.546 234.894 198.488 234.975 198.401 234.998C189.21 237.465 180.382 241.353 171.925 246.674C171.867 246.709 171.792 246.686 171.769 246.622Z" fill="white"/>
<path d="M304.602 242.896L304.486 244.057C303.787 248.951 302.644 253.763 301.066 258.495C300.778 259.355 300.263 260.031 300.194 260.569C300.171 260.765 300.223 260.962 300.35 261.112L302.505 263.769L302.545 264.751C302.551 264.948 302.43 265.121 302.245 265.185C300.015 265.93 297.987 268.744 295.844 271.245C294.735 272.533 292.984 274.053 290.598 275.803C288.438 277.381 285.324 279.096 281.251 280.939C277.138 282.794 272.77 283.747 268.154 283.788C267.478 283.793 266.589 283.603 265.485 283.216C265.306 283.152 265.144 283.042 265.017 282.898C263.596 281.269 263.74 279.634 265.456 277.993C270.517 273.163 273.937 270.003 275.716 268.512C279.558 265.295 282.221 262.816 283.7 261.089C286.312 258.038 288.536 255.127 290.373 252.348C290.471 252.197 290.627 252.082 290.806 252.036C291.881 251.724 293.337 252.122 294.359 251.296C294.498 251.186 294.856 250.695 295.428 249.823C296.82 247.714 297.583 245.634 297.727 243.583C297.756 243.196 297.548 242.827 297.202 242.642C296.716 242.388 294.931 241.787 294.163 241.648C291.927 241.238 288.449 240.678 287.028 239.216C286.768 238.944 286.837 238.494 287.172 238.32C290.76 236.437 295.139 235.195 298.796 237.044C299.657 237.477 300.679 238.372 301.869 239.73C302.765 240.747 303.672 241.804 304.602 242.896Z" fill="#DA6B5F"/>
<path d="M415.534 255.658C412.143 257.143 408.688 258.541 405.176 259.852C401.692 261.152 397.608 262.914 395.078 264.636C392.709 266.248 390.075 268.432 387.174 271.176C383.864 274.307 381.721 278.577 380.288 282.759C378.873 286.896 379.317 291.697 379.93 296.099C380.045 296.937 379.889 298.133 379.468 299.681C379.427 299.831 379.248 299.9 379.115 299.82C376.013 297.861 373.431 295.435 369.837 292.24C369.675 292.095 369.456 292.055 369.26 292.13L366.989 292.985C366.793 293.06 366.683 293.262 366.718 293.465C367.428 297.33 368.884 298.78 371.23 301.247C371.773 301.824 372.241 302.466 372.61 303.165C373.182 304.233 373.771 305.256 374.384 306.232C374.736 306.793 376.25 308.22 378.93 310.525C379.052 310.629 379.127 310.773 379.144 310.929C379.699 315.407 379.809 319.901 380.069 327.025C380.213 330.872 380.161 333.807 379.913 335.835C379.71 337.528 379.375 340.128 378.913 343.629C378.48 346.881 377.729 350.082 375.135 352.046C374.886 352.231 374.534 352.179 374.349 351.931C372.639 349.591 371.339 346.431 369.254 341.988C368.22 339.781 366.85 337.69 365.666 335.616C365.008 334.466 363.95 333.334 362.5 332.219C362.315 332.08 362.159 332.323 362.027 332.952C360.571 326.02 359.583 319.035 359.069 311.992C358.884 309.473 358.791 306.302 358.791 302.471C358.791 293.927 359.121 285.353 360.207 277.675C362.125 264.139 369.369 253.567 382.218 248.148C390.635 244.6 400.912 244.693 408.792 249.459C411.542 251.129 413.79 253.191 415.534 255.658Z" fill="#EB8376"/>
<path d="M415.534 255.658C418.255 259.91 418.966 264.318 416.436 268.588C413.327 273.839 406.36 273.325 400.901 273.313C395.366 273.302 390.496 277.248 388.665 282.349C386.545 288.248 385.539 294.285 385.638 300.449C385.719 305.14 386.498 310.484 387.348 315.395C389.936 330.329 391.565 339.821 392.235 343.877C393.131 349.29 393.807 354.981 394.274 360.961C391.461 358.603 388.093 357.604 384.69 356.304C384.373 356.183 384.055 356.477 384.153 356.801C385.291 360.556 389.381 363.219 392.692 364.941C392.824 365.01 392.986 364.964 393.056 364.831L394.425 362.376C395.02 370.666 394.442 378.876 392.692 386.993L393.096 379.956C393.102 379.835 392.963 379.766 392.871 379.841C390.675 381.568 388.983 383.735 385.915 382.175C385.17 381.799 384.742 381.418 384.644 381.031C384.552 380.69 384.736 380.338 385.066 380.21L388.815 378.795C389.035 378.714 389.127 378.443 388.994 378.246C387.579 376.074 385.869 374.173 383.772 372.388C379.993 369.17 376.776 366.299 374.124 363.786C371.605 361.388 367.856 361.596 366.695 357.431C366.695 357.425 366.689 357.425 366.689 357.431C366.902 361.804 366.839 366.108 366.492 370.354C366.579 364.883 366.18 359.204 365.291 353.317C364.02 344.929 362.934 338.14 362.027 332.952C362.159 332.323 362.315 332.08 362.5 332.219C363.95 333.334 365.008 334.466 365.666 335.616C366.85 337.69 368.22 339.781 369.254 341.988C371.339 346.431 372.639 349.591 374.349 351.931C374.534 352.179 374.886 352.231 375.135 352.046C377.729 350.082 378.48 346.881 378.913 343.629C379.375 340.128 379.71 337.528 379.913 335.835C380.161 333.807 380.213 330.872 380.069 327.025C379.809 319.901 379.699 315.407 379.144 310.929C379.127 310.773 379.052 310.629 378.93 310.525C376.25 308.22 374.736 306.793 374.384 306.232C373.771 305.256 373.182 304.233 372.61 303.165C372.241 302.466 371.773 301.824 371.23 301.247C368.884 298.78 367.428 297.33 366.718 293.465C366.683 293.262 366.793 293.06 366.989 292.985L369.26 292.13C369.456 292.055 369.675 292.095 369.837 292.24C373.431 295.435 376.013 297.861 379.115 299.82C379.248 299.9 379.427 299.831 379.468 299.681C379.889 298.133 380.045 296.937 379.93 296.099C379.317 291.697 378.873 286.896 380.288 282.759C381.721 278.577 383.864 274.307 387.174 271.176C390.075 268.432 392.709 266.248 395.078 264.636C397.608 262.914 401.692 261.152 405.176 259.852C408.688 258.541 412.143 257.143 415.534 255.658Z" fill="#DA6B5F"/>
<path d="M146.846 269.5L148.233 264.249L154.905 271.378C155.131 271.621 155.188 271.967 155.055 272.268L154.38 273.787C154.27 274.024 154.408 274.301 154.663 274.359C159.798 275.555 162.797 276.271 163.646 276.497C166.084 277.15 167.817 278.496 168.84 280.547C169.134 281.142 168.949 281.719 168.279 282.286C168.164 282.378 168.025 282.442 167.875 282.465C165.42 282.834 162.392 282.424 158.787 281.24C154.01 279.668 150.751 276.63 149.007 272.123C148.77 271.517 148.054 270.639 146.846 269.5Z" fill="#DA6B5F"/>
<path d="M304.637 266.889L310.229 277.427L310.385 281.136C310.391 281.303 310.356 281.471 310.281 281.621C308.49 285.203 303.961 287.341 300.113 289.103C300.061 289.126 298.126 289.86 294.307 291.31C292.389 292.038 290.431 292.696 288.426 293.291C281.852 295.25 275.895 296.862 270.563 298.115C268.807 298.525 267.022 298.641 265.208 298.462C261.014 298.046 260.551 293.557 263.908 291.598C265.254 290.807 266.461 290.333 267.519 290.166C275.67 288.901 282.903 287.485 289.789 283.129C294.596 280.09 298.386 277.178 301.962 273.048C303.527 271.245 303.308 268.876 304.637 266.889Z" fill="#DA6B5F"/>
<path d="M141.941 296.376C142.583 290.362 143.605 284.163 145.021 277.773C147.967 282.771 151.295 287.254 155.009 291.229C159.897 296.463 165.593 300.444 172.098 303.17C173.993 303.968 175.281 304.724 176.067 306.388C176.523 307.359 176.523 308.301 176.067 309.213C174.634 312.062 166.488 309.341 163.97 308.624C156.581 306.515 149.908 303.072 143.94 298.3C143.709 298.115 142.889 297.647 142.473 297.566C142.259 297.526 142.097 297.358 142.063 297.15L141.941 296.376Z" fill="#DA6B5F"/>
<path d="M323.054 306.151L326.913 318.492L326.919 319.717C326.919 320.15 326.769 320.572 326.497 320.907C324.134 323.813 322.436 325.754 321.402 326.719C318.375 329.561 314.966 331.832 311.176 333.536C309.518 334.281 307.808 334.431 306.041 333.986C305.775 333.923 305.596 333.663 305.63 333.391C305.827 331.71 306.422 330.116 307.41 328.614C308.814 326.493 311.517 322.651 315.527 317.088C317.086 314.916 318.219 312.749 319.53 310.276C320.137 309.127 321.315 307.752 323.054 306.151Z" fill="#DA6B5F"/>
<path d="M330.154 332.138L331.905 341.26L332.292 346.829C332.309 347.026 332.251 347.222 332.136 347.384C329.871 350.585 327.358 352.185 323.014 353.335C321.379 353.768 319.368 354.45 316.994 355.38C316.815 355.449 316.636 355.276 316.705 355.097C317.531 352.965 318.149 350.665 318.571 348.204C319.172 344.692 323.199 341.595 324.955 338.447C326.434 335.795 327.092 332.767 330.154 332.138Z" fill="#DA6B5F"/>
<path d="M334.296 355.715C336.474 365.01 338.011 374.173 338.901 383.203C339.854 392.944 339.305 402.707 335.29 411.812C335.198 412.026 335.4 412.246 335.619 412.17C338.866 411.055 341.859 409.467 344.597 407.393C349.086 404.001 353.528 399.252 357.925 393.146C362.645 389.079 364.73 386.017 365.915 380.626C365.967 380.395 366.261 380.338 366.394 380.534C367.474 382.134 368.543 383.758 369.6 385.404C371.611 388.536 376.695 389.021 379.878 391.898C381.467 393.336 383.096 395.133 384.754 397.288C386.342 399.339 386.81 401.685 386.169 404.325C381.761 412.609 375.62 418.826 368.104 424.644C365.4 426.735 363.199 428.052 360.005 430.091C353.344 434.349 345.966 437.209 337.659 438.942C333.863 439.734 328.693 440.265 322.153 440.537C311.974 440.959 301.708 441.611 291.361 442.501C281.528 443.339 273.446 443.651 261.909 444.101C258.148 444.252 254.295 444.182 250.337 443.893C251.377 442.12 252.463 440.427 253.596 438.815C255.104 436.672 256.045 435.181 256.409 434.344C258.472 429.641 259.205 427.134 261.349 420.53C262.389 417.347 262.937 414.608 263.862 411.05C264.26 409.513 264.717 407.11 265.231 403.84C266.288 397.144 267.455 391.193 268.738 385.988C268.928 385.219 269.171 384.595 269.466 384.104C269.598 383.891 269.928 383.989 269.928 384.237C269.951 388.605 270.101 394.561 270.511 400.356C271.043 407.93 270.713 415.487 269.518 423.014C269.471 423.303 269.702 423.563 269.997 423.54L271.395 423.448C282.002 421.541 292.199 416.856 301.049 410.807C303.493 409.137 305.971 406.757 308.473 404.787C308.785 404.29 309.518 403.481 310.674 402.361C312.557 400.529 314.695 397.953 317.086 394.631C318.369 392.851 319.53 390.471 320.564 387.496C324.302 380.153 326.168 372.677 327.653 364.589C327.994 362.728 328.808 360.302 330.102 357.309C330.351 356.732 330.72 356.165 331.206 355.605C331.639 355.102 331.997 354.507 332.269 353.814C332.459 353.323 333.147 353.3 333.372 353.774L334.296 355.715Z" fill="#AA433A"/>
<path d="M394.274 360.961L394.425 362.376L393.056 364.831C392.986 364.964 392.824 365.01 392.692 364.941C389.381 363.219 385.291 360.556 384.153 356.801C384.055 356.477 384.373 356.183 384.69 356.304C388.093 357.604 391.461 358.603 394.274 360.961Z" fill="#AA433A"/>
<path d="M392.692 386.993C391.409 393.076 389.237 398.854 386.169 404.325C386.81 401.685 386.342 399.339 384.754 397.288C383.096 395.133 381.467 393.336 379.878 391.898C376.695 389.021 371.611 388.536 369.6 385.404C368.543 383.758 367.474 382.134 366.394 380.534C366.261 380.338 365.967 380.395 365.915 380.626C364.73 386.017 362.645 389.079 357.925 393.146C362.552 386.213 366.14 378.876 366.492 370.354C366.839 366.108 366.902 361.804 366.689 357.431C366.689 357.425 366.695 357.425 366.695 357.431C367.856 361.596 371.605 361.388 374.124 363.786C376.776 366.299 379.993 369.17 383.772 372.388C385.869 374.173 387.579 376.074 388.994 378.246C389.127 378.443 389.035 378.714 388.815 378.795L385.066 380.21C384.736 380.338 384.552 380.69 384.644 381.031C384.742 381.418 385.17 381.799 385.915 382.175C388.983 383.735 390.675 381.568 392.871 379.841C392.963 379.766 393.102 379.835 393.096 379.956L392.692 386.993Z" fill="#AA433A"/>
<path d="M130.82 372.249L131.947 361.85C132.634 361.498 133.189 361.608 133.611 362.168C137.106 366.813 140.798 370.689 144.691 373.803C145.494 374.445 146.107 375.161 146.696 375.831C146.829 375.976 146.933 376.137 147.019 376.317C148.574 379.656 149.775 381.926 152.641 383.683C154.94 385.086 157.303 386.265 159.735 387.207C159.781 387.224 159.77 387.293 159.718 387.299C154.622 387.594 151.878 385.485 147.753 382.331C146.251 381.181 144.807 379.962 143.426 378.674C143.235 378.495 142.929 378.518 142.773 378.726C141.237 380.73 139.238 381.227 136.771 380.21C134.362 379.223 132.525 378.344 131.271 377.576C131.098 377.472 130.988 377.287 130.982 377.085L130.82 372.249Z" fill="#DA6B5F"/>
<path d="M161.254 366.287C159.81 368.026 159.203 370.071 159.44 372.428C159.793 375.924 160.555 379.361 161.74 382.741C159.515 378.327 155.379 370.378 159.596 365.946C159.729 365.808 159.914 365.727 160.105 365.733C160.532 365.738 160.913 365.923 161.254 366.287Z" fill="#DA6B5F"/>
<path d="M271.395 423.448L269.997 423.54C269.702 423.563 269.471 423.303 269.518 423.014C270.713 415.487 271.043 407.93 270.511 400.356C270.101 394.561 269.951 388.605 269.928 384.237C269.928 383.989 269.598 383.891 269.466 384.104C269.171 384.595 268.928 385.219 268.738 385.988C267.455 391.193 266.288 397.144 265.231 403.84C264.717 407.11 264.26 409.513 263.862 411.05C262.937 414.608 262.389 417.347 261.349 420.53C259.205 427.134 258.472 429.641 256.409 434.344C256.045 435.181 255.104 436.672 253.596 438.815C252.463 440.427 251.377 442.12 250.337 443.893C250.054 443.772 249.696 443.882 249.275 444.217C245.548 447.175 240.308 448.914 235.664 447.314C235.589 447.285 235.513 447.25 235.444 447.21L229.482 443.518C230.586 432.454 229.944 421.42 227.57 410.408C230.302 414.995 232.561 419.779 234.346 424.765C234.56 425.366 235.427 426.764 236.946 428.965C240.574 434.217 248.009 424.343 249.246 421.813C252.978 414.152 254.832 410.663 257.553 403.897C260.523 396.537 263.688 389.691 266.981 381.799C268.888 377.235 270.875 373.191 272.943 369.673C274.457 367.102 277.467 364.023 280.286 367.246C281.719 368.881 281.43 374.699 281.153 376.727C280.494 381.557 280.298 386.103 279.454 391.326C278.322 398.345 276.774 405.116 274.804 411.639C274.717 411.922 274.133 413.632 273.047 416.769C272.296 418.941 271.747 421.166 271.395 423.448Z" fill="#DA6B5F"/>
<path d="M161.254 366.287C164.085 369.182 165.726 371.163 166.171 372.232C168.302 377.299 169.62 380.361 170.122 381.406C170.804 382.822 171.451 384.451 172.069 386.282C172.3 386.97 172.947 388.599 174.01 391.17C175.16 393.96 176.2 396.722 177.124 399.455C179.394 405.411 181.532 411.338 183.525 417.231C184.952 421.449 187.945 428.347 192.503 437.925C193.236 439.468 194.016 440.785 194.842 441.866C195.183 442.316 194.727 442.94 194.201 442.738C194.063 442.686 193.93 442.698 193.803 442.784C193.693 442.859 193.739 443.027 193.872 443.038L194.79 443.102L187.627 443.974C186.119 443.114 184.767 441.577 183.571 439.376C182.809 437.966 182.416 437.244 182.399 437.215C180.244 433.5 178.522 430.444 177.222 428.046C175.518 424.898 174.027 421.599 172.757 418.138C172.629 417.809 172.612 417.549 172.699 417.347C172.653 416.209 172.653 415.042 172.705 413.846C172.762 412.482 172.733 411.321 172.612 410.356C171.861 404.261 170.694 398.218 169.105 392.216C168.811 391.101 168.493 390.188 168.164 389.477C168.077 389.298 167.938 389.148 167.765 389.044C165.362 387.663 163.369 385.762 161.792 383.342L161.74 382.741C160.555 379.361 159.793 375.924 159.44 372.428C159.203 370.071 159.81 368.026 161.254 366.287Z" fill="#AA433A"/>
<path d="M217.83 382.458C217.489 382.071 217.246 381.632 217.096 381.129C217.061 381.008 216.934 380.927 216.807 380.956L216.79 380.961C216.651 380.99 216.564 381.123 216.582 381.262C217.015 384.289 216.663 387.137 216.645 390.113C216.64 392.1 216.507 396.092 216.258 402.083C216.241 402.401 216.276 402.719 216.362 403.025C217.385 406.763 217.737 410.431 217.419 414.031C217.183 416.671 217.564 418.739 217.477 421.333C217.275 427.336 216.934 432.772 216.466 437.642C216.304 439.329 215.906 440.935 215.265 442.455C215.195 442.617 215.27 442.807 215.432 442.882L216.148 443.218C214.762 443.373 213.572 443.841 212.578 444.627C211.186 445.725 210.481 446.279 210.464 446.285C206.345 448.66 202.145 448.567 197.87 446.014C197.714 445.921 197.575 445.812 197.448 445.684L194.79 443.102L193.872 443.038C193.739 443.027 193.693 442.859 193.803 442.784C193.93 442.698 194.063 442.686 194.201 442.738C194.727 442.94 195.183 442.316 194.842 441.866C194.016 440.785 193.236 439.468 192.503 437.925C187.945 428.347 184.952 421.449 183.525 417.231C181.532 411.338 179.394 405.411 177.124 399.455C178.459 401.136 179.62 402.921 180.608 404.799C181.965 407.381 182.653 408.675 182.659 408.687C187.251 416.515 193.127 423.361 200.273 429.236C202.445 431.022 204.698 431.039 207.026 429.288C207.656 428.809 208.523 427.463 209.62 425.239C210.614 423.211 211.238 419.75 211.486 417.145C211.931 412.477 213.121 407.543 215.051 402.337C215.403 401.396 215.386 400.292 215.01 399.033C212.942 392.094 211.556 386.935 210.845 383.55C210.238 380.644 210.377 377.882 211.273 375.265C211.504 374.589 212.203 374.225 212.792 374.468C214.889 375.334 217.09 380.378 217.83 382.458Z" fill="#DA6B5F"/>
<path d="M217.83 382.458L221.596 395.532C221.648 395.711 221.764 395.867 221.92 395.971L222.792 396.531C222.965 396.641 223.093 396.809 223.162 397.005L227.57 410.408C229.944 421.42 230.586 432.454 229.482 443.518C227.847 443.836 226.178 443.726 224.462 443.189C223.185 442.79 222.001 442.391 220.897 441.999C220.389 441.814 219.834 441.819 219.326 442.01L216.148 443.218L215.432 442.882C215.27 442.807 215.195 442.617 215.265 442.455C215.906 440.935 216.304 439.329 216.466 437.642C216.934 432.772 217.275 427.336 217.477 421.333C217.564 418.739 217.183 416.671 217.419 414.031C217.737 410.431 217.385 406.763 216.362 403.025C216.276 402.719 216.241 402.401 216.258 402.083C216.507 396.092 216.64 392.1 216.645 390.113C216.663 387.137 217.015 384.289 216.582 381.262C216.564 381.123 216.651 380.99 216.79 380.961L216.807 380.956C216.934 380.927 217.061 381.008 217.096 381.129C217.246 381.632 217.489 382.071 217.83 382.458Z" fill="#AA433A"/>
<path d="M172.699 417.347C171.416 414.227 170.243 411.038 169.186 407.78C166.569 399.709 164.102 391.563 161.792 383.342C163.369 385.762 165.362 387.663 167.765 389.044C167.938 389.148 168.077 389.298 168.164 389.477C168.493 390.188 168.811 391.101 169.105 392.216C170.694 398.218 171.861 404.261 172.612 410.356C172.733 411.321 172.762 412.482 172.705 413.846C172.653 415.042 172.653 416.209 172.699 417.347Z" fill="#DA6B5F"/>
<path d="M320.564 387.496C319.53 390.471 318.369 392.851 317.086 394.631C314.695 397.953 312.557 400.529 310.674 402.361C309.518 403.481 308.785 404.29 308.473 404.787C308.484 400.442 312.332 396.814 315.787 393.458C316.688 392.574 318.282 390.586 320.564 387.496Z" fill="#DA6B5F"/>
<path d="M158.886 414.094C158.551 416.509 153.802 416.226 152.034 415.793C150.174 415.348 145.003 414.135 145.275 412.188C145.552 410.247 150.855 410.495 152.762 410.576C154.587 410.651 159.227 411.674 158.886 414.094Z" fill="#DA6B5F"/>
<path d="M187.627 443.974C179.487 444.904 171.746 444.789 164.403 443.633C158.25 442.663 152.427 440.722 146.921 437.81C145.714 437.169 144.576 436.198 143.501 434.892C145.437 434.598 147.297 434.332 149.088 434.095C156.205 433.148 162.606 430.513 168.291 426.186C168.522 426.007 168.718 425.776 168.857 425.516L172.757 418.138C174.027 421.599 175.518 424.898 177.222 428.046C178.522 430.444 180.244 433.5 182.399 437.215C182.416 437.244 182.809 437.966 183.571 439.376C184.767 441.577 186.119 443.114 187.627 443.974Z" fill="#DA6B5F"/>
</svg>
