<svg width="100" height="101" viewBox="0 0 100 101" fill="none" xmlns="http://www.w3.org/2000/svg">
<path opacity="0.9" d="M60.7793 16.0205L78.5615 70.7012C83.8414 71.6386 88.3311 72.8797 91.749 74.4287C93.7719 75.3455 95.6871 76.4876 97.165 77.957C98.6729 79.4564 100 81.5952 100 84.2979C100 88.7534 96.3809 91.4476 93.9229 92.8359C91.0621 94.4517 87.2542 95.742 82.9814 96.7627C74.3571 98.823 62.6987 100.048 50 100.048C37.3013 100.048 25.6429 98.823 17.0186 96.7627C12.7458 95.742 8.93786 94.4517 6.07715 92.8359C3.61907 91.4476 0 88.7534 0 84.2979C0 81.5952 1.32706 79.4564 2.83496 77.957C4.31289 76.4876 6.22809 75.3455 8.25098 74.4287C11.5983 72.9117 15.9735 71.6892 21.1123 70.7588L31.2715 25.6309L20.542 0L60.7793 16.0205ZM41.7285 24.7139L29.374 79.5918L25.9805 80.0928C19.7763 81.0089 15.2321 82.2431 12.3789 83.5361C11.869 83.7672 11.4465 83.9863 11.0996 84.1855C12.802 85.1254 15.5493 86.1301 19.3418 87.0361C27.0042 88.8666 37.846 90.0479 50 90.0479C62.154 90.0479 72.9958 88.8666 80.6582 87.0361C84.4501 86.1303 87.1969 85.1253 88.8994 84.1855C88.5527 83.9864 88.1306 83.7671 87.6211 83.5361C84.7679 82.2431 80.2237 81.0089 74.0195 80.0928L70.9541 79.6406L52.7207 23.5752L38.958 18.0957L41.7285 24.7139Z" fill="white"/>
</svg>
